{"title":"UFC Fight Night 75 Barnett vs Nelson Official Weigh-In -={SPARRO","uid":12496661,"size":520180157,"categoryP":"video","categoryS":"hd___tv_shows","magnet":"?xt=urn:btih:9d260c94bf8c8d8bd9381a709f9d6d352d672c82&amp;dn=UFC+Fight+Night+75+Barnett+vs+Nelson+Official+Weigh-In+-%3D%7BSPARRO&amp;tr=udp%3A%2F%2Ftracker.leechers-paradise.org%3A6969&amp;tr=udp%3A%2F%2Fzer0day.ch%3A1337&amp;tr=udp%3A%2F%2Fopen.demonii.com%3A1337&amp;tr=udp%3A%2F%2Ftracker.coppersurfer.tk%3A6969&amp;tr=udp%3A%2F%2Fexodus.desync.com%3A6969","seeders":1,"leechers":0,"uploader":"CenaCme","files":2,"time":1443281019,"description":"UFC Fight Night 75 Barnett vs Nelson Official Weigh-In.mp4\r\n\r\nFormat                      : MPEG-4\r\nFormat profile              : Base Media / Version 2\r\nCodec ID                    : mp42\r\nFile size                   : 496 MiB\r\nDuration                    : 25mn 49s\r\nOverall bit rate mode       : Variable\r\nOverall bit rate            : 2 686 Kbps\r\nEncoded date                : UTC 2015-09-26 03:38:17\r\nTagged date                 : UTC 2015-09-26 03:38:17\r\ngsst                        : 0\r\ngstd                        : 1549630\r\ngssd                        : B0AFCF632HM1443248894668279\r\ngshh                        : r8---sn-nv47ene7.googlevideo.com\r\n\r\nVideo\r\nID                          : 1\r\nFormat                      : AVC\r\nFormat/Info                 : Advanced Video Codec\r\nFormat profile              :   \r\nFormat settings, CABAC      : Yes\r\nFormat settings, ReFrames   : 1 frame\r\nFormat settings, GOP        : M=1, N=60\r\nCodec ID                    : avc1\r\nCodec ID/Info               : Advanced Video Coding\r\nDuration                    : 25mn 49s\r\nBit rate                    : 2 491 Kbps\r\nMaximum bit rate            : 5 681 Kbps\r\nWidth                       : 1 280 pixels\r\nHeight                      : 720 pixels\r\nDisplay aspect ratio        : 16:9\r\nFrame rate mode             : Constant\r\nFrame rate                  : 30.000 fps\r\nColor space                 : YUV\r\nChroma subsampling          : 4:2:0\r\nBit depth                   : 8 bits\r\nScan type                   : Progressive\r\nBits/(Pixel*Frame)          : 0.090\r\nStream size                 : 460 MiB (93%)\r\nTagged date                 : UTC 2015-09-26 03:39:26\r\n\r\nAudio\r\nID                          : 2\r\nFormat                      : AAC\r\nFormat/Info                 : Advanced Audio Codec\r\nFormat profile              : LC\r\nCodec ID                    : 40\r\nDuration                    : 25mn 49s\r\nBit rate mode               : Variable\r\nBit rate                    : 192 Kbps\r\nMaximum bit rate            : 202 Kbps\r\nChannel(s)                  : 2 channels\r\nChannel positions           : Front: L R\r\nSampling rate               : 44.1 KHz\r\nCompression mode            : Lossy\r\nStream size                 : 35.5 MiB (7%)\r\nTitle                       : IsoMedia File Produced by Google, 5-11-2011\r\nEncoded date                : UTC 2015-09-26 03:38:32\r\nTagged date                 : UTC 2015-09-26 03:39:26\r\n\r\n\r\nScreens:\r\n \nhttp://imgsparrow.co/image/8ot","torrent":{"xt":"urn:btih:9d260c94bf8c8d8bd9381a709f9d6d352d672c82","amp;dn":"UFC+Fight+Night+75+Barnett+vs+Nelson+Official+Weigh-In+-%3D%7BSPARRO","amp;tr":["udp%3A%2F%2Ftracker.leechers-paradise.org%3A6969","udp%3A%2F%2Fzer0day.ch%3A1337","udp%3A%2F%2Fopen.demonii.com%3A1337","udp%3A%2F%2Ftracker.coppersurfer.tk%3A6969","udp%3A%2F%2Fexodus.desync.com%3A6969"],"infoHash":"9d260c94bf8c8d8bd9381a709f9d6d352d672c82","infoHashBuffer":{"type":"Buffer","data":[157,38,12,148,191,140,141,139,217,56,26,112,159,157,109,53,45,103,44,130]},"announce":[],"urlList":[]}}